<svg width="19" height="21" viewBox="0 0 19 21" fill="none" xmlns="http://www.w3.org/2000/svg">
<g opacity="0.5">
<path d="M3.3367 5.15504C8.7745 3.78986 15.535 3.87356 17.0974 5.65275C18.6598 7.43195 18.6276 13.3811 16.8012 15.0135C14.9759 16.6459 7.04866 16.8011 4.53727 15.0135C1.88397 13.1239 3.42348 7.31092 3.3367 3.78986C3.38877 1.81954 1.25 1.5 1.25 1.5" stroke="#353739" stroke-width="1.5" stroke-linecap="round" stroke-linejoin="round"/>
<path d="M11.9756 9.53394H14.8065" stroke="#353739" stroke-width="1.5" stroke-linecap="round" stroke-linejoin="round"/>
<path fill-rule="evenodd" clip-rule="evenodd" d="M4.9392 19.1382C5.24547 19.1382 5.49456 19.3873 5.49456 19.6936C5.49456 20.0008 5.24547 20.2499 4.9392 20.2499C4.63191 20.2499 4.38281 20.0008 4.38281 19.6936C4.38281 19.3873 4.63191 19.1382 4.9392 19.1382Z" fill="#353739" stroke="#353739" stroke-width="1.5" stroke-linecap="round" stroke-linejoin="round"/>
<path fill-rule="evenodd" clip-rule="evenodd" d="M15.4865 19.1382C15.7938 19.1382 16.0429 19.3873 16.0429 19.6936C16.0429 20.0008 15.7938 20.2499 15.4865 20.2499C15.1802 20.2499 14.9312 20.0008 14.9312 19.6936C14.9312 19.3873 15.1802 19.1382 15.4865 19.1382Z" fill="#353739" stroke="#353739" stroke-width="1.5" stroke-linecap="round" stroke-linejoin="round"/>
</g>
</svg>
