<svg width="58" height="58" viewBox="0 0 58 58" fill="none" xmlns="http://www.w3.org/2000/svg">
<path d="M22.9902 37.5302V20.3997C22.9906 20.1854 23.0486 19.9751 23.1582 19.7909C23.2677 19.6067 23.4248 19.4553 23.613 19.3527C23.8011 19.25 24.0134 19.1999 24.2276 19.2075C24.4418 19.2151 24.65 19.2802 24.8304 19.396L38.1563 27.9588C38.325 28.0669 38.4639 28.2158 38.56 28.3916C38.6562 28.5674 38.7066 28.7646 38.7066 28.965C38.7066 29.1654 38.6562 29.3625 38.56 29.5384C38.4639 29.7142 38.325 29.863 38.1563 29.9711L24.8304 38.5364C24.65 38.6521 24.4418 38.7172 24.2276 38.7248C24.0134 38.7324 23.8011 38.6823 23.613 38.5797C23.4248 38.477 23.2677 38.3257 23.1582 38.1415C23.0486 37.9572 22.9906 37.747 22.9902 37.5326V37.5302Z" fill="white"/>
<path d="M2.67676 28.965C2.67676 14.4466 14.4468 2.6765 28.9652 2.6765C43.4836 2.6765 55.2537 14.4466 55.2537 28.965C55.2537 43.4834 43.4836 55.2535 28.9652 55.2535C14.4468 55.2535 2.67676 43.4834 2.67676 28.965ZM28.9652 6.26129C22.9438 6.26129 17.1691 8.65328 12.9113 12.911C8.65354 17.1688 6.26155 22.9436 6.26155 28.965C6.26155 34.9864 8.65354 40.7611 12.9113 45.0189C17.1691 49.2767 22.9438 51.6687 28.9652 51.6687C34.9866 51.6687 40.7614 49.2767 45.0192 45.0189C49.2769 40.7611 51.6689 34.9864 51.6689 28.965C51.6689 22.9436 49.2769 17.1688 45.0192 12.911C40.7614 8.65328 34.9866 6.26129 28.9652 6.26129Z" fill="white"/>
</svg>
