<svg width="20" height="20" viewBox="0 0 20 20" fill="none" xmlns="http://www.w3.org/2000/svg">
<path d="M14.3751 12.4999C13.9072 12.5022 13.4459 12.6096 13.0251 12.814C12.6043 13.0185 12.2348 13.3148 11.9438 13.6811L7.37505 10.8249C7.54156 10.2875 7.54156 9.71228 7.37505 9.17488L11.9438 6.31863C12.4075 6.89283 13.0595 7.28437 13.7843 7.42389C14.509 7.56341 15.2598 7.4419 15.9035 7.0809C16.5473 6.7199 17.0425 6.14269 17.3014 5.45154C17.5603 4.76039 17.5662 3.99989 17.3181 3.30478C17.0701 2.60966 16.5839 2.0248 15.9459 1.65378C15.3079 1.28276 14.5591 1.14954 13.8323 1.27772C13.1054 1.4059 12.4474 1.7872 11.9748 2.35408C11.5021 2.92097 11.2454 3.63684 11.2501 4.37488C11.2531 4.65436 11.2952 4.93205 11.3751 5.19988L6.8063 8.05613C6.40296 7.54837 5.85164 7.17866 5.22877 6.99826C4.60591 6.81785 3.94234 6.83568 3.33006 7.04927C2.71778 7.26286 2.18711 7.66164 1.81161 8.19032C1.43611 8.71901 1.23438 9.35142 1.23438 9.99988C1.23437 10.6484 1.43611 11.2808 1.81161 11.8094C2.18711 12.3381 2.71778 12.7369 3.33006 12.9505C3.94234 13.1641 4.60591 13.1819 5.22877 13.0015C5.85164 12.8211 6.40296 12.4514 6.8063 11.9436L11.3751 14.7999C11.2952 15.0677 11.2531 15.3454 11.2501 15.6249C11.2501 16.243 11.4333 16.8471 11.7767 17.361C12.1201 17.8749 12.6081 18.2755 13.1792 18.512C13.7502 18.7485 14.3785 18.8104 14.9847 18.6898C15.5909 18.5693 16.1477 18.2716 16.5848 17.8346C17.0218 17.3976 17.3194 16.8407 17.44 16.2345C17.5606 15.6284 17.4987 15 17.2622 14.429C17.0257 13.858 16.6251 13.3699 16.1112 13.0265C15.5973 12.6832 14.9931 12.4999 14.3751 12.4999ZM14.3751 2.49988C14.7459 2.49988 15.1084 2.60985 15.4167 2.81588C15.7251 3.02191 15.9654 3.31474 16.1073 3.65735C16.2492 3.99996 16.2864 4.37696 16.214 4.74068C16.1417 5.10439 15.9631 5.43849 15.7009 5.70071C15.4387 5.96293 15.1046 6.14151 14.7408 6.21386C14.3771 6.2862 14.0001 6.24907 13.6575 6.10716C13.3149 5.96524 13.0221 5.72492 12.816 5.41658C12.61 5.10824 12.5001 4.74572 12.5001 4.37488C12.5001 3.8776 12.6976 3.40069 13.0492 3.04906C13.4009 2.69743 13.8778 2.49988 14.3751 2.49988ZM4.37505 11.8749C4.00421 11.8749 3.6417 11.7649 3.33336 11.5589C3.02502 11.3529 2.78469 11.06 2.64278 10.7174C2.50087 10.3748 2.46373 9.9978 2.53608 9.63409C2.60843 9.27038 2.78701 8.93628 3.04923 8.67406C3.31145 8.41184 3.64555 8.23326 4.00926 8.16091C4.37297 8.08856 4.74997 8.1257 5.09259 8.26761C5.4352 8.40952 5.72803 8.64985 5.93406 8.95819C6.14009 9.26653 6.25005 9.62904 6.25005 9.99988C6.25005 10.4972 6.05251 10.9741 5.70088 11.3257C5.34925 11.6773 4.87233 11.8749 4.37505 11.8749ZM14.3751 17.4999C14.0042 17.4999 13.6417 17.3899 13.3334 17.1839C13.025 16.9779 12.7847 16.685 12.6428 16.3424C12.5009 15.9998 12.4637 15.6228 12.5361 15.2591C12.6084 14.8954 12.787 14.5613 13.0492 14.2991C13.3115 14.0368 13.6455 13.8583 14.0093 13.7859C14.373 13.7136 14.75 13.7507 15.0926 13.8926C15.4352 14.0345 15.728 14.2748 15.9341 14.5832C16.1401 14.8915 16.2501 15.254 16.2501 15.6249C16.2501 16.1222 16.0525 16.5991 15.7009 16.9507C15.3492 17.3023 14.8723 17.4999 14.3751 17.4999Z" fill="#252B42"/>
</svg>
