<svg width="123" height="31" viewBox="0 0 123 31" fill="none" xmlns="http://www.w3.org/2000/svg">
<path d="M8.86092 30.3457C6.05621 30.3457 3.9961 29.6383 2.68062 28.2235C1.36513 26.8088 0.707385 24.4632 0.707385 21.1869C0.707385 18.5808 1.14174 15.7761 2.01046 12.7728C2.904 9.76949 4.31877 7.20056 6.25477 5.066C8.21559 2.90661 10.6976 1.82692 13.7009 1.82692C15.5625 1.82692 17.0641 2.23646 18.2058 3.05554C19.3476 3.87461 19.9185 5.12805 19.9185 6.81584C19.9185 7.88313 19.7075 8.72702 19.2855 9.34754C18.8636 9.94323 18.2058 10.2411 17.3123 10.2411C16.4188 10.2411 15.7114 9.91841 15.1902 9.27308C15.6369 9.04969 16.0341 8.60292 16.3815 7.93277C16.729 7.26261 16.9028 6.56764 16.9028 5.84784C16.9028 5.17769 16.7166 4.63164 16.3443 4.20969C15.9968 3.78774 15.4259 3.57677 14.6317 3.57677C13.3162 3.57677 12.0628 4.48272 10.8714 6.29461C9.68 8.08169 8.712 10.3404 7.96739 13.0706C7.24759 15.8009 6.88769 18.4318 6.88769 20.9635C6.88769 22.8499 7.21036 24.2895 7.85569 25.2823C8.50103 26.2751 9.66759 26.7715 11.3554 26.7715C12.8198 26.7715 14.1725 26.4489 15.4135 25.8035C16.6546 25.1582 17.7218 24.2398 18.6154 23.0485L19.4717 23.4208C18.8512 24.9845 17.9328 26.2875 16.7166 27.33C15.5004 28.3725 14.1973 29.1419 12.8074 29.6383C11.4174 30.1099 10.1019 30.3457 8.86092 30.3457ZM22.974 29.9734C21.5592 29.9734 20.3803 29.4894 19.4371 28.5214C18.4939 27.5534 18.0223 26.0393 18.0223 23.9792C18.0223 22.1425 18.3822 20.2189 19.102 18.2085C19.8466 16.1732 20.9387 14.4606 22.3783 13.0706C23.8427 11.6558 25.5802 10.9485 27.5906 10.9485C28.6083 10.9485 29.3653 11.1222 29.8617 11.4697C30.3581 11.8172 30.6063 12.2764 30.6063 12.8472V13.1078L31.0159 11.1346H36.3771L33.6965 23.7931C33.5972 24.1654 33.5475 24.5625 33.5475 24.9845C33.5475 26.0517 34.0564 26.5854 35.074 26.5854C35.769 26.5854 36.3647 26.2627 36.8611 25.6174C37.3823 24.9721 37.7919 24.1282 38.0897 23.0857H39.6534C38.735 25.7663 37.5933 27.5906 36.2282 28.5586C34.8879 29.5018 33.5351 29.9734 32.17 29.9734C31.1275 29.9734 30.2836 29.6879 29.6383 29.1171C29.0178 28.5214 28.6455 27.6651 28.5214 26.5482C27.8016 27.5658 26.9949 28.3973 26.1014 29.0426C25.2327 29.6631 24.1902 29.9734 22.974 29.9734ZM25.394 26.362C26.0145 26.362 26.6226 26.0766 27.2183 25.5057C27.8388 24.91 28.2608 24.1033 28.4842 23.0857L30.2712 14.6715C30.2712 14.3489 30.1471 14.0386 29.8989 13.7408C29.6507 13.4181 29.266 13.2568 28.7448 13.2568C27.752 13.2568 26.8584 13.8401 26.0642 15.0066C25.2699 16.1484 24.6494 17.5383 24.2026 19.1765C23.7559 20.7898 23.5325 22.217 23.5325 23.458C23.5325 24.699 23.7062 25.4933 24.0537 25.8408C24.426 26.1883 24.8728 26.362 25.394 26.362ZM41.7892 29.9734C40.5978 29.9734 39.6298 29.6011 38.8852 28.8565C38.1654 28.1118 37.8055 26.9949 37.8055 25.5057C37.8055 24.8852 37.9048 24.0785 38.1034 23.0857L42.0871 4.43308L47.5972 3.68846L43.3157 23.7931C43.2164 24.1654 43.1668 24.5625 43.1668 24.9845C43.1668 25.4809 43.2784 25.8408 43.5018 26.0642C43.75 26.2627 44.1472 26.362 44.6932 26.362C45.413 26.362 46.0832 26.0642 46.7037 25.4685C47.3242 24.8479 47.771 24.0537 48.044 23.0857H49.6077C48.6893 25.7663 47.5103 27.5906 46.0708 28.5586C44.6312 29.5018 43.204 29.9734 41.7892 29.9734ZM70.6655 29.9734C69.1514 29.9734 68.0345 29.5763 67.3147 28.782C66.6197 27.9629 66.2722 26.9577 66.2722 25.7663C66.2722 25.2451 66.3343 24.6618 66.4584 24.0165C66.5825 23.3463 66.7066 22.701 66.8307 22.0805C66.9796 21.4599 67.0789 21.0628 67.1285 20.8891C67.3271 20.0204 67.5133 19.1641 67.687 18.3202C67.8607 17.4763 67.9476 16.7937 67.9476 16.2725C67.9476 15.0066 67.5008 14.3737 66.6073 14.3737C65.962 14.3737 65.3911 14.6964 64.8947 15.3417C64.3983 15.9622 64.0011 16.7813 63.7033 17.7989L61.1716 29.75H55.8104L58.5282 16.9054C58.6027 16.6075 58.6399 16.2973 58.6399 15.9746C58.6399 14.8825 58.2676 14.3365 57.523 14.3365C56.828 14.3365 56.2199 14.6591 55.6987 15.3045C55.2023 15.925 54.8051 16.7565 54.5073 17.7989L51.9756 29.75H46.6144L50.5608 11.1346H55.9221L55.5125 13.0706C56.7784 11.6558 58.2924 10.9485 60.0547 10.9485C62.2389 10.9485 63.5171 12.0157 63.8895 14.1503C65.2546 12.0406 66.9796 10.9857 69.0645 10.9857C70.3304 10.9857 71.3356 11.3332 72.0802 12.0282C72.8248 12.7231 73.1972 13.778 73.1972 15.1928C73.1972 15.9126 73.1103 16.7192 72.9365 17.6128C72.7628 18.4815 72.5146 19.5488 72.1919 20.8146C71.9934 21.5841 71.8072 22.3411 71.6335 23.0857C71.4845 23.8055 71.4101 24.3764 71.4101 24.7983C71.4101 25.2947 71.5218 25.6794 71.7451 25.9525C71.9685 26.2255 72.3533 26.362 72.8993 26.362C73.6439 26.362 74.2396 26.1014 74.6864 25.5802C75.1331 25.0341 75.5799 24.2026 76.0267 23.0857H77.5904C76.672 25.8159 75.6047 27.6527 74.3885 28.5958C73.1971 29.5142 71.9561 29.9734 70.6655 29.9734ZM78.5566 11.1346H83.9179L83.4339 13.4429C84.2778 12.6983 85.0348 12.1274 85.7049 11.7303C86.3999 11.3332 87.1445 11.1346 87.9388 11.1346C88.733 11.1346 89.3536 11.4076 89.8003 11.9537C90.2719 12.4997 90.5077 13.1575 90.5077 13.9269C90.5077 14.6467 90.2719 15.2796 89.8003 15.8257C89.3287 16.3717 88.671 16.6448 87.8271 16.6448C87.281 16.6448 86.9087 16.5207 86.7102 16.2725C86.5364 15.9994 86.3999 15.6147 86.3006 15.1183C86.2262 14.7956 86.1517 14.5598 86.0772 14.4109C86.0028 14.262 85.8663 14.1875 85.6677 14.1875C85.1465 14.1875 84.6997 14.2992 84.3274 14.5226C83.9799 14.7212 83.5207 15.0811 82.9499 15.6023L79.9714 29.75H74.6102L78.5566 11.1346ZM94.4905 29.9734C93.0758 29.9734 91.8968 29.4894 90.9536 28.5214C90.0104 27.5534 89.5388 26.0393 89.5388 23.9792C89.5388 22.1425 89.8987 20.2189 90.6185 18.2085C91.3632 16.1732 92.4553 14.4606 93.8948 13.0706C95.3593 11.6558 97.0967 10.9485 99.1072 10.9485C100.125 10.9485 100.882 11.1222 101.378 11.4697C101.875 11.8172 102.123 12.2764 102.123 12.8472V13.1078L102.532 11.1346H107.894L105.213 23.7931C105.114 24.1654 105.064 24.5625 105.064 24.9845C105.064 26.0517 105.573 26.5854 106.591 26.5854C107.286 26.5854 107.881 26.2627 108.378 25.6174C108.899 24.9721 109.308 24.1282 109.606 23.0857H111.17C110.252 25.7663 109.11 27.5906 107.745 28.5586C106.404 29.5018 105.052 29.9734 103.687 29.9734C102.644 29.9734 101.8 29.6879 101.155 29.1171C100.534 28.5214 100.162 27.6651 100.038 26.5482C99.3181 27.5658 98.5115 28.3973 97.6179 29.0426C96.7492 29.6631 95.7067 29.9734 94.4905 29.9734ZM96.9105 26.362C97.531 26.362 98.1392 26.0766 98.7348 25.5057C99.3554 24.91 99.7773 24.1033 100.001 23.0857L101.788 14.6715C101.788 14.3489 101.664 14.0386 101.415 13.7408C101.167 13.4181 100.783 13.2568 100.261 13.2568C99.2685 13.2568 98.3749 13.8401 97.5807 15.0066C96.7864 16.1484 96.1659 17.5383 95.7192 19.1765C95.2724 20.7898 95.049 22.217 95.049 23.458C95.049 24.699 95.2227 25.4933 95.5702 25.8408C95.9425 26.1883 96.3893 26.362 96.9105 26.362ZM113.864 29.9734C112.673 29.9734 111.668 29.75 110.849 29.3032C110.029 28.8316 109.421 28.2359 109.024 27.5162C108.627 26.7715 108.429 26.0021 108.429 25.2078C108.429 24.3888 108.627 23.6814 109.024 23.0857C109.397 22.4652 109.856 22.0184 110.402 21.7454C111.37 20.0079 112.214 18.2581 112.933 16.4958C113.653 14.7088 114.336 12.7852 114.981 10.7251L120.491 9.98046C120.615 13.1575 120.826 16.5951 121.124 20.2934C121.248 21.7826 121.31 22.8623 121.31 23.5325C121.31 25.0465 120.926 26.2875 120.156 27.2555C119.387 28.2235 118.431 28.9185 117.289 29.3405C116.173 29.7624 115.031 29.9734 113.864 29.9734ZM112.673 27.0322C113.591 27.0322 114.361 26.7591 114.981 26.2131C115.602 25.667 115.912 24.7859 115.912 23.5697C115.912 22.8251 115.837 21.7826 115.689 20.4423C115.44 17.6128 115.279 15.714 115.205 14.746C114.609 16.7068 113.604 19.0524 112.189 21.7826C112.76 22.0805 113.045 22.5148 113.045 23.0857C113.045 23.5573 112.884 23.9792 112.561 24.3515C112.263 24.7238 111.879 24.91 111.407 24.91C110.886 24.91 110.551 24.7487 110.402 24.426C110.402 25.3195 110.575 25.9773 110.923 26.3992C111.295 26.8212 111.879 27.0322 112.673 27.0322Z" fill="white"/>
</svg>
